<?xml version="1.0" encoding="UTF-8"?>
<svg xmlns="http://www.w3.org/2000/svg" xmlns:xlink="http://www.w3.org/1999/xlink" width="2000" height="2000" viewBox="0 0 2000 2000">
<defs>
<clipPath id="clip-0">
<path clip-rule="nonzero" d="M 222 645 L 1151 645 L 1151 1574 L 222 1574 Z M 222 645 "/>
</clipPath>
<clipPath id="clip-1">
<path clip-rule="nonzero" d="M 435.46875 1269.320312 C 467.378906 1272.390625 498.625 1280.371094 530.441406 1284.300781 C 607.441406 1293.789062 685.152344 1279.308594 761.382812 1264.890625 C 664.949219 1270.171875 562.640625 1274.179688 478.140625 1227.410156 C 460.925781 1217.878906 444.53125 1206.269531 425.652344 1200.710938 C 402.441406 1193.878906 377.625 1196.808594 353.613281 1199.800781 C 313.78125 1204.761719 273.945312 1209.710938 234.109375 1214.671875 C 226.285156 1180.878906 222.144531 1145.671875 222.144531 1109.5 C 222.144531 1020.140625 247.402344 936.679688 291.164062 865.859375 C 360.328125 854.890625 430.460938 848.128906 500.101562 841.480469 C 571.640625 834.648438 645.257812 828 714.195312 848.300781 C 673.210938 820.75 621.132812 816.960938 571.753906 816.230469 C 520.0625 815.460938 468.339844 817.070312 416.796875 821.058594 C 394.796875 822.761719 372.359375 824.859375 350.921875 819.648438 C 343.628906 817.871094 336.617188 815.289062 329.746094 812.320312 C 414.894531 710.261719 543.027344 645.308594 686.332031 645.308594 C 885.855469 645.308594 1055.96875 771.199219 1121.601562 947.878906 C 1065.558594 955.878906 1008.261719 973.53125 951.644531 973.570312 C 903.761719 973.601562 856.863281 960.898438 809.289062 955.46875 C 745.992188 948.238281 681.238281 954.039062 620.230469 972.398438 C 678.054688 981.761719 738.253906 967.351562 795.371094 980.339844 C 839.175781 990.289062 878.066406 1015.71875 921.40625 1027.53125 C 975.117188 1042.171875 1031.949219 1035.101562 1087.621094 1035.140625 C 1106.78125 1035.148438 1125.929688 1036.070312 1145.011719 1037.808594 C 1148.628906 1061.179688 1150.519531 1085.121094 1150.519531 1109.5 C 1150.519531 1210.941406 1117.980469 1304.769531 1062.769531 1381.140625 C 1014.871094 1388.550781 968.714844 1406.160156 920.523438 1412.011719 C 847.164062 1420.910156 770.554688 1402.429688 700.03125 1424.5 C 769.09375 1424.660156 831.464844 1465.871094 899.6875 1476.570312 C 921.601562 1480.011719 943.839844 1480.25 966.054688 1479.960938 C 888.265625 1538.789062 791.375 1573.691406 686.332031 1573.691406 C 493.441406 1573.691406 328.035156 1456.03125 257.953125 1288.570312 C 316.929688 1274.980469 376.097656 1263.601562 435.46875 1269.320312 Z M 435.46875 1269.320312 "/>
</clipPath>
<clipPath id="clip-2">
<path clip-rule="nonzero" d="M 435.46875 1269.320312 C 467.378906 1272.390625 498.625 1280.371094 530.441406 1284.300781 C 607.441406 1293.789062 685.152344 1279.308594 761.382812 1264.890625 C 664.949219 1270.171875 562.640625 1274.179688 478.140625 1227.410156 C 460.925781 1217.878906 444.53125 1206.269531 425.652344 1200.710938 C 402.441406 1193.878906 377.625 1196.808594 353.613281 1199.800781 C 313.78125 1204.761719 273.945312 1209.710938 234.109375 1214.671875 C 226.285156 1180.878906 222.144531 1145.671875 222.144531 1109.5 C 222.144531 1020.140625 247.402344 936.679688 291.164062 865.859375 C 360.328125 854.890625 430.460938 848.128906 500.101562 841.480469 C 571.640625 834.648438 645.257812 828 714.195312 848.300781 C 673.210938 820.75 621.132812 816.960938 571.753906 816.230469 C 520.0625 815.460938 468.339844 817.070312 416.796875 821.058594 C 394.796875 822.761719 372.359375 824.859375 350.921875 819.648438 C 343.628906 817.871094 336.617188 815.289062 329.746094 812.320312 C 414.894531 710.261719 543.027344 645.308594 686.332031 645.308594 C 885.855469 645.308594 1055.96875 771.199219 1121.601562 947.878906 C 1065.558594 955.878906 1008.261719 973.53125 951.644531 973.570312 C 903.761719 973.601562 856.863281 960.898438 809.289062 955.46875 C 745.992188 948.238281 681.238281 954.039062 620.230469 972.398438 C 678.054688 981.761719 738.253906 967.351562 795.371094 980.339844 C 839.175781 990.289062 878.066406 1015.71875 921.40625 1027.53125 C 975.117188 1042.171875 1031.949219 1035.101562 1087.621094 1035.140625 C 1106.78125 1035.148438 1125.929688 1036.070312 1145.011719 1037.808594 C 1148.628906 1061.179688 1150.519531 1085.121094 1150.519531 1109.5 C 1150.519531 1210.941406 1117.980469 1304.769531 1062.769531 1381.140625 C 1014.871094 1388.550781 968.714844 1406.160156 920.523438 1412.011719 C 847.164062 1420.910156 770.554688 1402.429688 700.03125 1424.5 C 769.09375 1424.660156 831.464844 1465.871094 899.6875 1476.570312 C 921.601562 1480.011719 943.839844 1480.25 966.054688 1479.960938 C 888.265625 1538.789062 791.375 1573.691406 686.332031 1573.691406 C 493.441406 1573.691406 328.035156 1456.03125 257.953125 1288.570312 C 316.929688 1274.980469 376.097656 1263.601562 435.46875 1269.320312 "/>
</clipPath>
<linearGradient id="linear-pattern-0" gradientUnits="userSpaceOnUse" x1="0.000000000000000666" y1="0" x2="1.000005" y2="0" gradientTransform="matrix(0, -928.375, -928.375, 0, 686.332, 1573.69)">
<stop offset="0" stop-color="rgb(97.514343%, 65.531921%, 17.060852%)" stop-opacity="1"/>
<stop offset="0.0078125" stop-color="rgb(97.50061%, 65.365601%, 16.995239%)" stop-opacity="1"/>
<stop offset="0.015625" stop-color="rgb(97.473145%, 65.034485%, 16.860962%)" stop-opacity="1"/>
<stop offset="0.0234375" stop-color="rgb(97.453308%, 64.782715%, 16.725159%)" stop-opacity="1"/>
<stop offset="0.03125" stop-color="rgb(97.439575%, 64.614868%, 16.583252%)" stop-opacity="1"/>
<stop offset="0.046875" stop-color="rgb(97.419739%, 64.367676%, 16.372681%)" stop-opacity="1"/>
<stop offset="0.0625" stop-color="rgb(97.392273%, 64.03656%, 16.091919%)" stop-opacity="1"/>
<stop offset="0.0703125" stop-color="rgb(97.366333%, 63.717651%, 15.887451%)" stop-opacity="1"/>
<stop offset="0.078125" stop-color="rgb(97.340393%, 63.397217%, 15.759277%)" stop-opacity="1"/>
<stop offset="0.0859375" stop-color="rgb(97.319031%, 63.136292%, 15.629578%)" stop-opacity="1"/>
<stop offset="0.09375" stop-color="rgb(97.303772%, 62.95929%, 15.492249%)" stop-opacity="1"/>
<stop offset="0.109375" stop-color="rgb(97.283936%, 62.713623%, 15.286255%)" stop-opacity="1"/>
<stop offset="0.117188" stop-color="rgb(97.257996%, 62.402344%, 15.144348%)" stop-opacity="1"/>
<stop offset="0.125" stop-color="rgb(97.232056%, 62.089539%, 15.151978%)" stop-opacity="1"/>
<stop offset="0.132812" stop-color="rgb(97.210693%, 61.819458%, 15.118408%)" stop-opacity="1"/>
<stop offset="0.140625" stop-color="rgb(97.195435%, 61.636353%, 15.003967%)" stop-opacity="1"/>
<stop offset="0.15625" stop-color="rgb(97.174072%, 61.390686%, 14.802551%)" stop-opacity="1"/>
<stop offset="0.164062" stop-color="rgb(97.149658%, 61.088562%, 14.607239%)" stop-opacity="1"/>
<stop offset="0.171875" stop-color="rgb(97.125244%, 60.786438%, 14.485168%)" stop-opacity="1"/>
<stop offset="0.179688" stop-color="rgb(97.102356%, 60.51178%, 14.363098%)" stop-opacity="1"/>
<stop offset="0.1875" stop-color="rgb(97.087097%, 60.321045%, 14.231873%)" stop-opacity="1"/>
<stop offset="0.203125" stop-color="rgb(97.065735%, 60.076904%, 14.03656%)" stop-opacity="1"/>
<stop offset="0.210938" stop-color="rgb(97.042847%, 59.785461%, 13.844299%)" stop-opacity="1"/>
<stop offset="0.21875" stop-color="rgb(97.018433%, 59.492493%, 13.726807%)" stop-opacity="1"/>
<stop offset="0.226562" stop-color="rgb(96.994019%, 59.210205%, 13.609314%)" stop-opacity="1"/>
<stop offset="0.234375" stop-color="rgb(96.97876%, 59.013367%, 13.482666%)" stop-opacity="1"/>
<stop offset="0.242188" stop-color="rgb(96.965027%, 58.851624%, 13.317871%)" stop-opacity="1"/>
<stop offset="0.25" stop-color="rgb(96.951294%, 58.692932%, 13.079834%)" stop-opacity="1"/>
<stop offset="0.257813" stop-color="rgb(96.934509%, 58.493042%, 12.882996%)" stop-opacity="1"/>
<stop offset="0.265625" stop-color="rgb(96.911621%, 58.207703%, 12.840271%)" stop-opacity="1"/>
<stop offset="0.273438" stop-color="rgb(96.887207%, 57.91626%, 12.837219%)" stop-opacity="1"/>
<stop offset="0.28125" stop-color="rgb(96.870422%, 57.710266%, 12.754822%)" stop-opacity="1"/>
<stop offset="0.289062" stop-color="rgb(96.853638%, 57.513428%, 12.632751%)" stop-opacity="1"/>
<stop offset="0.296875" stop-color="rgb(96.83075%, 57.235718%, 12.519836%)" stop-opacity="1"/>
<stop offset="0.304688" stop-color="rgb(96.806335%, 56.944275%, 12.411499%)" stop-opacity="1"/>
<stop offset="0.3125" stop-color="rgb(96.789551%, 56.733704%, 12.29248%)" stop-opacity="1"/>
<stop offset="0.320312" stop-color="rgb(96.772766%, 56.542969%, 12.173462%)" stop-opacity="1"/>
<stop offset="0.328125" stop-color="rgb(96.749878%, 56.271362%, 12.063599%)" stop-opacity="1"/>
<stop offset="0.335938" stop-color="rgb(96.725464%, 55.973816%, 11.956787%)" stop-opacity="1"/>
<stop offset="0.34375" stop-color="rgb(96.707153%, 55.758667%, 11.84082%)" stop-opacity="1"/>
<stop offset="0.359375" stop-color="rgb(96.687317%, 55.519104%, 11.660767%)" stop-opacity="1"/>
<stop offset="0.375" stop-color="rgb(96.661377%, 55.200195%, 11.421204%)" stop-opacity="1"/>
<stop offset="0.382812" stop-color="rgb(96.640015%, 54.942322%, 11.245728%)" stop-opacity="1"/>
<stop offset="0.390625" stop-color="rgb(96.617126%, 54.682922%, 11.138916%)" stop-opacity="1"/>
<stop offset="0.398438" stop-color="rgb(96.592712%, 54.377747%, 11.039734%)" stop-opacity="1"/>
<stop offset="0.40625" stop-color="rgb(96.572876%, 54.153442%, 10.929871%)" stop-opacity="1"/>
<stop offset="0.414062" stop-color="rgb(96.559143%, 53.979492%, 10.827637%)" stop-opacity="1"/>
<stop offset="0.421875" stop-color="rgb(96.537781%, 53.723145%, 10.803223%)" stop-opacity="1"/>
<stop offset="0.429688" stop-color="rgb(96.510315%, 53.407288%, 10.83374%)" stop-opacity="1"/>
<stop offset="0.4375" stop-color="rgb(96.492004%, 53.175354%, 10.786438%)" stop-opacity="1"/>
<stop offset="0.445313" stop-color="rgb(96.478271%, 53.007507%, 10.671997%)" stop-opacity="1"/>
<stop offset="0.453125" stop-color="rgb(96.456909%, 52.760315%, 10.569763%)" stop-opacity="1"/>
<stop offset="0.460938" stop-color="rgb(96.430969%, 52.445984%, 10.476685%)" stop-opacity="1"/>
<stop offset="0.46875" stop-color="rgb(96.411133%, 52.212524%, 10.372925%)" stop-opacity="1"/>
<stop offset="0.484375" stop-color="rgb(96.391296%, 51.976013%, 10.205078%)" stop-opacity="1"/>
<stop offset="0.492188" stop-color="rgb(96.37146%, 51.737976%, 10.037231%)" stop-opacity="1"/>
<stop offset="0.5" stop-color="rgb(96.350098%, 51.499939%, 9.936523%)" stop-opacity="1"/>
<stop offset="0.507812" stop-color="rgb(96.324158%, 51.179504%, 9.848022%)" stop-opacity="1"/>
<stop offset="0.515625" stop-color="rgb(96.302795%, 50.93689%, 9.815979%)" stop-opacity="1"/>
<stop offset="0.523438" stop-color="rgb(96.289062%, 50.772095%, 9.838867%)" stop-opacity="1"/>
<stop offset="0.53125" stop-color="rgb(96.269226%, 50.534058%, 9.809875%)" stop-opacity="1"/>
<stop offset="0.539062" stop-color="rgb(96.243286%, 50.219727%, 9.725952%)" stop-opacity="1"/>
<stop offset="0.546875" stop-color="rgb(96.221924%, 49.97406%, 9.631348%)" stop-opacity="1"/>
<stop offset="0.5625" stop-color="rgb(96.202087%, 49.732971%, 9.469604%)" stop-opacity="1"/>
<stop offset="0.570312" stop-color="rgb(96.182251%, 49.499512%, 9.309387%)" stop-opacity="1"/>
<stop offset="0.578125" stop-color="rgb(96.162415%, 49.272156%, 9.269714%)" stop-opacity="1"/>
<stop offset="0.585938" stop-color="rgb(96.136475%, 48.957825%, 9.306335%)" stop-opacity="1"/>
<stop offset="0.59375" stop-color="rgb(96.115112%, 48.703003%, 9.292603%)" stop-opacity="1"/>
<stop offset="0.601562" stop-color="rgb(96.099854%, 48.532104%, 9.199524%)" stop-opacity="1"/>
<stop offset="0.609375" stop-color="rgb(96.081543%, 48.310852%, 9.156799%)" stop-opacity="1"/>
<stop offset="0.617188" stop-color="rgb(96.055603%, 48.002625%, 9.190369%)" stop-opacity="1"/>
<stop offset="0.625" stop-color="rgb(96.034241%, 47.741699%, 9.182739%)" stop-opacity="1"/>
<stop offset="0.640625" stop-color="rgb(96.012878%, 47.486877%, 9.092712%)" stop-opacity="1"/>
<stop offset="0.648438" stop-color="rgb(95.993042%, 47.24884%, 9.048462%)" stop-opacity="1"/>
<stop offset="0.65625" stop-color="rgb(95.974731%, 47.03064%, 9.039307%)" stop-opacity="1"/>
<stop offset="0.664062" stop-color="rgb(95.948792%, 46.737671%, 8.976746%)" stop-opacity="1"/>
<stop offset="0.671875" stop-color="rgb(95.927429%, 46.47522%, 8.894348%)" stop-opacity="1"/>
<stop offset="0.679688" stop-color="rgb(95.91217%, 46.29364%, 8.796692%)" stop-opacity="1"/>
<stop offset="0.6875" stop-color="rgb(95.89386%, 46.087646%, 8.705139%)" stop-opacity="1"/>
<stop offset="0.695312" stop-color="rgb(95.869446%, 45.802307%, 8.625793%)" stop-opacity="1"/>
<stop offset="0.703125" stop-color="rgb(95.846558%, 45.533752%, 8.546448%)" stop-opacity="1"/>
<stop offset="0.710938" stop-color="rgb(95.831299%, 45.349121%, 8.451843%)" stop-opacity="1"/>
<stop offset="0.71875" stop-color="rgb(95.812988%, 45.146179%, 8.398438%)" stop-opacity="1"/>
<stop offset="0.726562" stop-color="rgb(95.7901%, 44.859314%, 8.418274%)" stop-opacity="1"/>
<stop offset="0.734375" stop-color="rgb(95.765686%, 44.578552%, 8.465576%)" stop-opacity="1"/>
<stop offset="0.742188" stop-color="rgb(95.748901%, 44.380188%, 8.499146%)" stop-opacity="1"/>
<stop offset="0.75" stop-color="rgb(95.732117%, 44.177246%, 8.534241%)" stop-opacity="1"/>
<stop offset="0.757812" stop-color="rgb(95.707703%, 43.891907%, 8.581543%)" stop-opacity="1"/>
<stop offset="0.765625" stop-color="rgb(95.684814%, 43.606567%, 8.628845%)" stop-opacity="1"/>
<stop offset="0.78125" stop-color="rgb(95.6604%, 43.322754%, 8.677673%)" stop-opacity="1"/>
<stop offset="0.789062" stop-color="rgb(95.639038%, 43.078613%, 8.718872%)" stop-opacity="1"/>
<stop offset="0.796875" stop-color="rgb(95.623779%, 42.883301%, 8.750916%)" stop-opacity="1"/>
<stop offset="0.804688" stop-color="rgb(95.599365%, 42.607117%, 8.798218%)" stop-opacity="1"/>
<stop offset="0.8125" stop-color="rgb(95.574951%, 42.314148%, 8.847046%)" stop-opacity="1"/>
<stop offset="0.820313" stop-color="rgb(95.558167%, 42.102051%, 8.882141%)" stop-opacity="1"/>
<stop offset="0.828125" stop-color="rgb(95.541382%, 41.911316%, 8.914185%)" stop-opacity="1"/>
<stop offset="0.835938" stop-color="rgb(95.518494%, 41.639709%, 8.959961%)" stop-opacity="1"/>
<stop offset="0.84375" stop-color="rgb(95.49408%, 41.342163%, 9.010315%)" stop-opacity="1"/>
<stop offset="0.859375" stop-color="rgb(95.46814%, 41.044617%, 9.060669%)" stop-opacity="1"/>
<stop offset="0.867188" stop-color="rgb(95.448303%, 40.800476%, 9.101868%)" stop-opacity="1"/>
<stop offset="0.875" stop-color="rgb(95.433044%, 40.617371%, 9.132385%)" stop-opacity="1"/>
<stop offset="0.882812" stop-color="rgb(95.410156%, 40.354919%, 9.176636%)" stop-opacity="1"/>
<stop offset="0.890625" stop-color="rgb(95.384216%, 40.048218%, 9.228516%)" stop-opacity="1"/>
<stop offset="0.90625" stop-color="rgb(95.359802%, 39.743042%, 9.27887%)" stop-opacity="1"/>
<stop offset="0.921875" stop-color="rgb(95.332336%, 39.419556%, 9.333801%)" stop-opacity="1"/>
<stop offset="0.9375" stop-color="rgb(95.304871%, 39.096069%, 9.388733%)" stop-opacity="1"/>
<stop offset="0.953125" stop-color="rgb(95.277405%, 38.771057%, 9.443665%)" stop-opacity="1"/>
<stop offset="0.96875" stop-color="rgb(95.249939%, 38.447571%, 9.49707%)" stop-opacity="1"/>
<stop offset="0.984375" stop-color="rgb(95.222473%, 38.124084%, 9.552002%)" stop-opacity="1"/>
<stop offset="1" stop-color="rgb(95.195007%, 37.799072%, 9.606934%)" stop-opacity="1"/>
</linearGradient>
</defs>
<rect x="-200" y="-200" width="2400" height="2400" fill="rgb(100%, 100%, 100%)" fill-opacity="1"/>
<g clip-path="url(#clip-0)">
<g clip-path="url(#clip-1)">
<g clip-path="url(#clip-2)">
<path fill-rule="nonzero" fill="url(#linear-pattern-0)" d="M 1150.519531 1573.691406 L 222.144531 1573.691406 L 222.144531 645.308594 L 1150.519531 645.308594 Z M 1150.519531 1573.691406 "/>
</g>
</g>
</g>
<path fill-rule="nonzero" fill="rgb(6.266785%, 5.734253%, 5.047607%)" fill-opacity="1" d="M 1326.140625 756.300781 C 1326.140625 756.300781 1664.148438 841.25 1528.609375 1190.320312 C 1528.609375 1190.320312 1522.148438 1154.910156 1536.179688 1116.949219 C 1536.179688 1116.949219 1522.148438 1120.660156 1515.128906 1145.011719 C 1515.128906 1145.011719 1509.199219 1110.351562 1534.941406 1073.621094 C 1534.941406 1073.621094 1506.46875 1091.371094 1501.511719 1120.660156 C 1501.511719 1120.660156 1498.628906 1079.398438 1517.191406 1058.769531 C 1517.191406 1058.769531 1493.671875 1072.800781 1493.671875 1080.230469 C 1493.671875 1080.230469 1494.910156 1046.800781 1517.609375 1026.171875 C 1517.609375 1026.171875 1498.628906 1029.878906 1493.261719 1042.679688 C 1493.261719 1042.679688 1497.800781 1009.660156 1510.589844 995.628906 C 1510.589844 995.628906 1483.359375 1003.058594 1483.359375 1036.898438 C 1483.359375 1036.898438 1474.28125 993.160156 1504.398438 967.160156 C 1504.398438 967.160156 1484.179688 971.699219 1479.230469 987.789062 C 1479.230469 987.789062 1474.691406 953.960938 1489.140625 937.859375 C 1489.140625 937.859375 1466.03125 954.371094 1467.269531 1003.890625 C 1467.269531 1003.890625 1450.351562 949.421875 1479.230469 927.960938 C 1479.230469 927.960938 1456.949219 929.609375 1456.539062 951.070312 C 1456.539062 951.070312 1450.761719 915.988281 1463.960938 904.03125 C 1463.960938 904.03125 1446.628906 913.929688 1445.808594 932.089844 C 1445.808594 932.089844 1437.140625 888.761719 1451.578125 870.601562 C 1451.578125 870.601562 1433.839844 881.738281 1432.601562 895.359375 C 1432.601562 895.359375 1421.871094 863.179688 1430.539062 849.96875 C 1430.539062 849.96875 1421.871094 860.699219 1419.808594 879.679688 C 1419.808594 879.679688 1409.078125 858.21875 1413.210938 843.78125 C 1413.210938 843.78125 1401.660156 853.691406 1405.78125 870.601562 C 1405.78125 870.601562 1392.988281 856.160156 1395.050781 828.511719 C 1395.050781 828.511719 1382.261719 830.578125 1381.019531 837.179688 C 1381.019531 837.179688 1381.019531 822.738281 1388.039062 814.070312 C 1395.050781 805.410156 1366.988281 772.808594 1326.140625 756.300781 "/>
<path fill-rule="nonzero" fill="rgb(6.266785%, 5.734253%, 5.047607%)" fill-opacity="1" d="M 1395 812.140625 L 1386.691406 802.671875 C 1386.269531 800.738281 1386.03125 798.761719 1386.078125 796.789062 C 1386.179688 792.910156 1381.140625 789.320312 1372.738281 786.789062 L 1359.191406 771.351562 C 1456.160156 750.21875 1649.460938 745.351562 1726.75 1009.558594 C 1726.75 1009.558594 1700.050781 985.410156 1688.058594 946.761719 C 1688.058594 946.761719 1679.191406 958.25 1688.460938 981.828125 C 1688.460938 981.828125 1662.640625 957.949219 1660.679688 913.148438 C 1660.679688 913.148438 1648.910156 944.558594 1662.828125 970.820312 C 1662.828125 970.820312 1635.398438 939.851562 1637.558594 912.179688 C 1637.558594 912.179688 1627.449219 937.628906 1631.980469 943.519531 C 1631.980469 943.519531 1612.601562 916.261719 1618.03125 886.070312 C 1618.03125 886.070312 1605.238281 900.578125 1608.78125 913.988281 C 1608.78125 913.988281 1592.269531 885.050781 1593.871094 866.128906 C 1593.871094 866.128906 1576.789062 888.609375 1597.410156 915.441406 C 1597.410156 915.441406 1563.558594 886.28125 1571.621094 847.320312 C 1571.621094 847.320312 1558.351562 863.230469 1564.21875 879.011719 C 1564.21875 879.011719 1540.011719 854.941406 1541.660156 833.378906 C 1541.660156 833.378906 1533.390625 860.550781 1564.53125 899.058594 C 1564.53125 899.058594 1517.941406 866.171875 1527.78125 831.558594 C 1527.78125 831.558594 1511.109375 846.441406 1523.851562 863.710938 C 1523.851562 863.710938 1497.910156 839.410156 1501.089844 821.878906 C 1501.089844 821.878906 1493.378906 840.289062 1503.78125 855.191406 C 1503.78125 855.191406 1470.519531 826.109375 1470.910156 802.910156 C 1470.910156 802.910156 1463.628906 822.558594 1470.941406 834.109375 C 1470.941406 834.109375 1442.828125 815.121094 1441.660156 799.371094 C 1441.660156 799.371094 1441.320312 813.160156 1451.238281 829.46875 C 1451.238281 829.46875 1429.660156 818.980469 1424.140625 805.019531 C 1424.140625 805.019531 1421.011719 819.910156 1434.589844 830.808594 C 1434.589844 830.808594 1415.648438 827.148438 1400.441406 803.96875 C 1400.441406 803.96875 1396.828125 807.800781 1395 812.140625 "/>
<path fill-rule="nonzero" fill="rgb(6.266785%, 5.734253%, 5.047607%)" fill-opacity="1" d="M 1412.53125 784.859375 L 1400.148438 782.53125 C 1398.628906 781.269531 1397.21875 779.859375 1396.050781 778.269531 C 1393.730469 775.160156 1387.550781 775.441406 1379.378906 778.621094 L 1359.191406 774.820312 C 1422.53125 698.410156 1571.71875 575.410156 1795.449219 735.808594 C 1795.449219 735.808594 1759.539062 733.25 1726.269531 710.210938 C 1726.269531 710.210938 1726.371094 724.71875 1748.210938 737.578125 C 1748.210938 737.578125 1713.160156 734.691406 1684 700.621094 C 1684 700.621094 1694.089844 732.609375 1721.238281 744.699219 C 1721.238281 744.699219 1680.550781 737.230469 1665.191406 714.109375 C 1665.191406 714.109375 1672.921875 740.378906 1680.121094 742.230469 C 1680.121094 742.230469 1648.058594 732.710938 1633.71875 705.589844 C 1633.71875 705.589844 1632.589844 724.898438 1643.648438 733.28125 C 1643.648438 733.28125 1612.808594 720.660156 1602.398438 704.78125 C 1602.398438 704.78125 1602.820312 733.011719 1635.589844 741.429688 C 1635.589844 741.429688 1590.960938 739.328125 1573.289062 703.691406 C 1573.289062 703.691406 1572.648438 724.398438 1587 733.199219 C 1587 733.199219 1553.101562 729.171875 1541.109375 711.179688 C 1541.109375 711.179688 1551.339844 737.671875 1599.609375 748.800781 C 1599.609375 748.800781 1542.640625 751.621094 1529.050781 718.300781 C 1529.050781 718.300781 1525.101562 740.300781 1545.78125 746.039062 C 1545.78125 746.039062 1510.371094 742.898438 1502.070312 727.128906 C 1502.070312 727.128906 1507.351562 746.378906 1524.730469 751.699219 C 1524.730469 751.699219 1480.609375 749.308594 1466.621094 730.800781 C 1466.621094 730.800781 1472.988281 750.761719 1485.871094 755.351562 C 1485.871094 755.351562 1452.03125 757.71875 1441.398438 746.039062 C 1441.398438 746.039062 1449.628906 757.109375 1467.5 763.828125 C 1467.5 763.828125 1444.050781 768.878906 1431.089844 761.289062 C 1431.089844 761.289062 1437.800781 774.941406 1455.210938 775.160156 C 1455.210938 775.160156 1438.039062 783.949219 1411.78125 775.070312 C 1411.78125 775.070312 1411.300781 780.320312 1412.53125 784.859375 "/>
<path fill-rule="nonzero" fill="rgb(6.266785%, 5.734253%, 5.047607%)" fill-opacity="1" d="M 1409.449219 743.238281 L 1400.078125 751.671875 C 1398.160156 752.109375 1396.179688 752.371094 1394.210938 752.339844 C 1390.328125 752.289062 1386.800781 757.378906 1384.371094 765.800781 L 1369.089844 779.539062 C 1346.808594 682.820312 1339.621094 489.601562 1602.890625 409.160156 C 1602.890625 409.160156 1579.070312 436.140625 1540.558594 448.601562 C 1540.558594 448.601562 1552.160156 457.328125 1575.621094 447.78125 C 1575.621094 447.78125 1552.058594 473.878906 1507.28125 476.371094 C 1507.28125 476.371094 1538.828125 487.769531 1564.921875 473.539062 C 1564.921875 473.539062 1534.28125 501.328125 1506.578125 499.5 C 1506.578125 499.5 1532.160156 509.308594 1537.988281 504.710938 C 1537.988281 504.710938 1510.960938 524.410156 1480.710938 519.339844 C 1480.710938 519.339844 1495.371094 531.960938 1508.738281 528.261719 C 1508.738281 528.261719 1480 545.121094 1461.058594 543.738281 C 1461.058594 543.738281 1483.738281 560.550781 1510.328125 539.621094 C 1510.328125 539.621094 1481.578125 573.808594 1442.519531 566.21875 C 1442.519531 566.21875 1458.589844 579.300781 1474.300781 573.230469 C 1474.300781 573.230469 1450.519531 597.730469 1428.941406 596.339844 C 1428.941406 596.339844 1456.199219 604.28125 1494.351562 572.679688 C 1494.351562 572.679688 1462.011719 619.671875 1427.289062 610.238281 C 1427.289062 610.238281 1442.371094 626.730469 1459.480469 613.78125 C 1459.480469 613.78125 1435.488281 640.019531 1417.921875 637.039062 C 1417.921875 637.039062 1436.429688 644.539062 1451.199219 633.949219 C 1451.199219 633.949219 1422.519531 667.558594 1399.320312 667.449219 C 1399.320312 667.449219 1419.050781 674.5 1430.511719 667.050781 C 1430.511719 667.050781 1411.859375 695.378906 1396.121094 696.738281 C 1396.121094 696.738281 1409.910156 696.921875 1426.109375 686.800781 C 1426.109375 686.800781 1415.878906 708.5 1401.980469 714.191406 C 1401.980469 714.191406 1416.910156 717.140625 1427.648438 703.429688 C 1427.648438 703.429688 1424.21875 722.421875 1401.21875 737.898438 C 1401.21875 737.898438 1405.089844 741.460938 1409.449219 743.238281 "/>
<path fill-rule="nonzero" fill="rgb(6.266785%, 5.734253%, 5.047607%)" fill-opacity="1" d="M 1419.128906 731.871094 L 1408.710938 733.070312 C 1407.191406 732.441406 1405.71875 731.671875 1404.390625 730.691406 C 1401.78125 728.789062 1396.941406 730.539062 1391.21875 735.078125 L 1374.210938 737.03125 C 1405.769531 660.621094 1494.160156 525.96875 1711.71875 598.441406 C 1711.71875 598.441406 1682.519531 605.25 1650.371094 595.121094 C 1650.371094 595.121094 1654.03125 606.648438 1674.570312 611.488281 C 1674.570312 611.488281 1645.96875 617.828125 1614.371094 597.921875 C 1614.371094 597.921875 1630.289062 620.878906 1654.871094 623.808594 C 1654.871094 623.808594 1620.648438 627.890625 1602.730469 613.28125 C 1602.730469 613.28125 1615.359375 632.28125 1621.539062 631.980469 C 1621.539062 631.980469 1593.679688 632.308594 1575.589844 614.269531 C 1575.589844 614.269531 1579.449219 629.910156 1590.308594 633.851562 C 1590.308594 633.851562 1562.660156 631.421875 1550.46875 621.339844 C 1550.46875 621.339844 1557.761719 643.699219 1585.910156 642.328125 C 1585.910156 642.328125 1549.890625 651.660156 1527.03125 627.648438 C 1527.03125 627.648438 1531.628906 644.289062 1545.21875 647.761719 C 1545.21875 647.761719 1517.25 652.910156 1503.28125 641.550781 C 1503.28125 641.550781 1517.949219 660.101562 1559.101562 657.058594 C 1559.101562 657.058594 1514.46875 673.351562 1495.441406 650.191406 C 1495.441406 650.191406 1497.71875 668.660156 1515.589844 668.128906 C 1515.589844 668.128906 1486.640625 674.359375 1476.148438 663.859375 C 1476.148438 663.859375 1485.089844 677.878906 1500.230469 677.828125 C 1500.230469 677.828125 1464.539062 686.800781 1448.839844 675.519531 C 1448.839844 675.519531 1458.828125 689.828125 1470.210938 690.308594 C 1470.210938 690.308594 1443.871094 700.550781 1432.53125 693.871094 C 1432.53125 693.871094 1441.808594 700.648438 1457.691406 701.589844 C 1457.691406 701.589844 1440.269531 711.390625 1428.089844 708.539062 C 1428.089844 708.539062 1436.800781 717.75 1450.710938 713.628906 C 1450.710938 713.628906 1439.210938 724.859375 1416.121094 724.269531 C 1416.121094 724.269531 1417.03125 728.558594 1419.128906 731.871094 "/>
<path fill-rule="nonzero" fill="rgb(6.266785%, 5.734253%, 5.047607%)" fill-opacity="1" d="M 1416.089844 756.300781 C 1416.089844 756.300781 1078.070312 841.25 1213.621094 1190.320312 C 1213.621094 1190.320312 1220.078125 1154.910156 1206.050781 1116.949219 C 1206.050781 1116.949219 1220.078125 1120.660156 1227.101562 1145.011719 C 1227.101562 1145.011719 1233.019531 1110.351562 1207.289062 1073.621094 C 1207.289062 1073.621094 1235.761719 1091.371094 1240.710938 1120.660156 C 1240.710938 1120.660156 1243.601562 1079.398438 1225.03125 1058.769531 C 1225.03125 1058.769531 1248.550781 1072.800781 1248.550781 1080.230469 C 1248.550781 1080.230469 1247.320312 1046.800781 1224.621094 1026.171875 C 1224.621094 1026.171875 1243.601562 1029.878906 1248.96875 1042.679688 C 1248.96875 1042.679688 1244.429688 1009.660156 1231.640625 995.628906 C 1231.640625 995.628906 1258.871094 1003.058594 1258.871094 1036.898438 C 1258.871094 1036.898438 1267.949219 993.160156 1237.828125 967.160156 C 1237.828125 967.160156 1258.039062 971.699219 1263 987.789062 C 1263 987.789062 1267.539062 953.960938 1253.089844 937.859375 C 1253.089844 937.859375 1276.199219 954.371094 1274.960938 1003.890625 C 1274.960938 1003.890625 1291.878906 949.421875 1263 927.960938 C 1263 927.960938 1285.28125 929.609375 1285.691406 951.070312 C 1285.691406 951.070312 1291.46875 915.988281 1278.261719 904.03125 C 1278.261719 904.03125 1295.601562 913.929688 1296.421875 932.089844 C 1296.421875 932.089844 1305.089844 888.761719 1290.640625 870.601562 C 1290.640625 870.601562 1308.390625 881.738281 1309.621094 895.359375 C 1309.621094 895.359375 1320.351562 863.179688 1311.691406 849.96875 C 1311.691406 849.96875 1320.351562 860.699219 1322.421875 879.679688 C 1322.421875 879.679688 1333.148438 858.21875 1329.019531 843.78125 C 1329.019531 843.78125 1340.570312 853.691406 1336.449219 870.601562 C 1336.449219 870.601562 1349.238281 856.160156 1347.179688 828.511719 C 1347.179688 828.511719 1359.96875 830.578125 1361.199219 837.179688 C 1361.199219 837.179688 1361.199219 822.738281 1354.191406 814.070312 C 1347.179688 805.410156 1375.230469 772.808594 1416.089844 756.300781 "/>
<path fill-rule="nonzero" fill="rgb(6.266785%, 5.734253%, 5.047607%)" fill-opacity="1" d="M 1347.230469 812.140625 L 1355.539062 802.671875 C 1355.960938 800.738281 1356.199219 798.761719 1356.148438 796.789062 C 1356.050781 792.910156 1361.089844 789.320312 1369.480469 786.789062 L 1383.039062 771.351562 C 1286.070312 750.21875 1092.769531 745.351562 1015.480469 1009.558594 C 1015.480469 1009.558594 1042.171875 985.410156 1054.171875 946.761719 C 1054.171875 946.761719 1063.039062 958.25 1053.769531 981.828125 C 1053.769531 981.828125 1079.578125 957.949219 1081.550781 913.148438 C 1081.550781 913.148438 1093.320312 944.558594 1079.398438 970.820312 C 1079.398438 970.820312 1106.820312 939.851562 1104.671875 912.179688 C 1104.671875 912.179688 1114.769531 937.628906 1110.25 943.519531 C 1110.25 943.519531 1129.628906 916.261719 1124.199219 886.070312 C 1124.199219 886.070312 1136.988281 900.578125 1133.449219 913.988281 C 1133.449219 913.988281 1149.960938 885.050781 1148.359375 866.128906 C 1148.359375 866.128906 1165.429688 888.609375 1144.820312 915.441406 C 1144.820312 915.441406 1178.671875 886.28125 1170.609375 847.320312 C 1170.609375 847.320312 1183.878906 863.230469 1178.011719 879.011719 C 1178.011719 879.011719 1202.21875 854.941406 1200.570312 833.378906 C 1200.570312 833.378906 1208.839844 860.550781 1177.691406 899.058594 C 1177.691406 899.058594 1224.289062 866.171875 1214.449219 831.558594 C 1214.449219 831.558594 1231.121094 846.441406 1218.378906 863.710938 C 1218.378906 863.710938 1244.320312 839.410156 1241.140625 821.878906 C 1241.140625 821.878906 1248.851562 840.289062 1238.449219 855.191406 C 1238.449219 855.191406 1271.710938 826.109375 1271.320312 802.910156 C 1271.320312 802.910156 1278.601562 822.558594 1271.289062 834.109375 C 1271.289062 834.109375 1299.398438 815.121094 1300.570312 799.371094 C 1300.570312 799.371094 1300.910156 813.160156 1290.980469 829.46875 C 1290.980469 829.46875 1312.558594 818.980469 1318.089844 805.019531 C 1318.089844 805.019531 1321.21875 819.910156 1307.640625 830.808594 C 1307.640625 830.808594 1326.578125 827.148438 1341.789062 803.96875 C 1341.789062 803.96875 1345.398438 807.800781 1347.230469 812.140625 "/>
<path fill-rule="nonzero" fill="rgb(6.266785%, 5.734253%, 5.047607%)" fill-opacity="1" d="M 1329.699219 784.859375 L 1342.078125 782.53125 C 1343.601562 781.269531 1345.011719 779.859375 1346.179688 778.269531 C 1348.488281 775.160156 1354.679688 775.441406 1362.851562 778.621094 L 1383.039062 774.820312 C 1319.699219 698.410156 1170.511719 575.410156 946.78125 735.808594 C 946.78125 735.808594 982.683594 733.25 1015.960938 710.210938 C 1015.960938 710.210938 1015.859375 724.71875 994.023438 737.578125 C 994.023438 737.578125 1029.070312 734.691406 1058.230469 700.621094 C 1058.230469 700.621094 1048.128906 732.609375 1020.988281 744.699219 C 1020.988281 744.699219 1061.679688 737.230469 1077.039062 714.109375 C 1077.039062 714.109375 1069.300781 740.378906 1062.109375 742.230469 C 1062.109375 742.230469 1094.171875 732.710938 1108.5 705.589844 C 1108.5 705.589844 1109.628906 724.898438 1098.578125 733.28125 C 1098.578125 733.28125 1129.421875 720.660156 1139.820312 704.78125 C 1139.820312 704.78125 1139.410156 733.011719 1106.640625 741.429688 C 1106.640625 741.429688 1151.261719 739.328125 1168.941406 703.691406 C 1168.941406 703.691406 1169.578125 724.398438 1155.230469 733.199219 C 1155.230469 733.199219 1189.128906 729.171875 1201.121094 711.179688 C 1201.121094 711.179688 1190.890625 737.671875 1142.621094 748.800781 C 1142.621094 748.800781 1199.589844 751.621094 1213.171875 718.300781 C 1213.171875 718.300781 1217.121094 740.300781 1196.449219 746.039062 C 1196.449219 746.039062 1231.851562 742.898438 1240.160156 727.128906 C 1240.160156 727.128906 1234.878906 746.378906 1217.5 751.699219 C 1217.5 751.699219 1261.621094 749.308594 1275.609375 730.800781 C 1275.609375 730.800781 1269.238281 750.761719 1256.359375 755.351562 C 1256.359375 755.351562 1290.199219 757.71875 1300.828125 746.039062 C 1300.828125 746.039062 1292.601562 757.109375 1274.730469 763.828125 C 1274.730469 763.828125 1298.179688 768.878906 1311.140625 761.289062 C 1311.140625 761.289062 1304.429688 774.941406 1287.011719 775.160156 C 1287.011719 775.160156 1304.191406 783.949219 1330.449219 775.070312 C 1330.449219 775.070312 1330.929688 780.320312 1329.699219 784.859375 "/>
<path fill-rule="nonzero" fill="rgb(6.266785%, 5.734253%, 5.047607%)" fill-opacity="1" d="M 1332.78125 743.238281 L 1342.148438 751.671875 C 1344.070312 752.109375 1346.050781 752.371094 1348.019531 752.339844 C 1351.898438 752.289062 1355.429688 757.378906 1357.859375 765.800781 L 1373.140625 779.539062 C 1395.421875 682.820312 1402.609375 489.601562 1139.339844 409.160156 C 1139.339844 409.160156 1163.160156 436.140625 1201.671875 448.601562 C 1201.671875 448.601562 1190.070312 457.328125 1166.601562 447.78125 C 1166.601562 447.78125 1190.171875 473.878906 1234.949219 476.371094 C 1234.949219 476.371094 1203.390625 487.769531 1177.308594 473.539062 C 1177.308594 473.539062 1207.949219 501.328125 1235.640625 499.5 C 1235.640625 499.5 1210.070312 509.308594 1204.238281 504.710938 C 1204.238281 504.710938 1231.261719 524.410156 1261.511719 519.339844 C 1261.511719 519.339844 1246.851562 531.960938 1233.488281 528.261719 C 1233.488281 528.261719 1262.230469 545.121094 1281.171875 543.738281 C 1281.171875 543.738281 1258.488281 560.550781 1231.898438 539.621094 C 1231.898438 539.621094 1260.648438 573.808594 1299.710938 566.21875 C 1299.710938 566.21875 1283.640625 579.300781 1267.929688 573.230469 C 1267.929688 573.230469 1291.710938 597.730469 1313.289062 596.339844 C 1313.289062 596.339844 1286.019531 604.28125 1247.878906 572.679688 C 1247.878906 572.679688 1280.21875 619.671875 1314.941406 610.238281 C 1314.941406 610.238281 1299.859375 626.730469 1282.75 613.78125 C 1282.75 613.78125 1306.730469 640.019531 1324.300781 637.039062 C 1324.300781 637.039062 1305.800781 644.539062 1291.03125 633.949219 C 1291.03125 633.949219 1319.710938 667.558594 1342.910156 667.449219 C 1342.910156 667.449219 1323.179688 674.5 1311.710938 667.050781 C 1311.710938 667.050781 1330.371094 695.378906 1346.101562 696.738281 C 1346.101562 696.738281 1332.308594 696.921875 1316.121094 686.800781 C 1316.121094 686.800781 1326.351562 708.5 1340.25 714.191406 C 1340.25 714.191406 1325.320312 717.140625 1314.578125 703.429688 C 1314.578125 703.429688 1318.011719 722.421875 1341.011719 737.898438 C 1341.011719 737.898438 1337.128906 741.460938 1332.78125 743.238281 "/>
<path fill-rule="nonzero" fill="rgb(6.266785%, 5.734253%, 5.047607%)" fill-opacity="1" d="M 1303.898438 777.308594 L 1314.648438 770.75 C 1315.628906 769.03125 1316.449219 767.210938 1316.980469 765.308594 C 1318.039062 761.578125 1323.921875 759.660156 1332.691406 759.730469 L 1350.230469 749.019531 C 1263.929688 700.011719 1080.828125 637.839844 928.441406 867.101562 C 928.441406 867.101562 961.113281 851.988281 984.066406 818.660156 C 984.066406 818.660156 989.109375 832.261719 973.246094 852.019531 C 973.246094 852.019531 1005 836.898438 1020.199219 794.710938 C 1020.199219 794.710938 1022.089844 828.210938 1000.988281 849.128906 C 1000.988281 849.128906 1036.390625 827.71875 1042.558594 800.660156 C 1042.558594 800.660156 1044.640625 827.96875 1038.570312 832.25 C 1038.570312 832.25 1065.179688 811.988281 1068.96875 781.550781 C 1068.96875 781.550781 1076.871094 799.210938 1069.5 810.960938 C 1069.5 810.960938 1093.871094 788.230469 1097.96875 769.699219 C 1097.96875 769.699219 1107.589844 796.238281 1079.929688 815.730469 C 1079.929688 815.730469 1120.910156 797.960938 1124.820312 758.359375 C 1124.820312 758.359375 1132.75 777.5 1122.449219 790.820312 C 1122.449219 790.820312 1152.71875 775.039062 1157.558594 753.96875 C 1157.558594 753.96875 1157.371094 782.359375 1116.179688 809.871094 C 1116.179688 809.871094 1170.449219 792.328125 1171.359375 756.359375 C 1171.359375 756.359375 1182.839844 775.519531 1165.539062 788.21875 C 1165.539062 788.21875 1197.539062 772.738281 1199.71875 755.050781 C 1199.71875 755.050781 1201.601562 774.929688 1187.238281 786.058594 C 1187.238281 786.058594 1227.648438 768.191406 1234.171875 745.921875 C 1234.171875 745.921875 1235.28125 766.851562 1224.859375 775.699219 C 1224.859375 775.699219 1257.351562 765.929688 1263.160156 751.238281 C 1263.160156 751.238281 1259.378906 764.511719 1245.050781 777.128906 C 1245.050781 777.128906 1268.769531 773.539062 1278.199219 761.851562 C 1278.199219 761.851562 1276.761719 777 1260.550781 783.371094 C 1260.550781 783.371094 1279.71875 785.511719 1301.140625 767.898438 C 1301.140625 767.898438 1303.441406 772.628906 1303.898438 777.308594 "/>
<path fill-rule="nonzero" fill="rgb(6.266785%, 5.734253%, 5.047607%)" fill-opacity="1" d="M 1449.488281 777.308594 L 1438.738281 770.75 C 1437.761719 769.03125 1436.941406 767.210938 1436.410156 765.308594 C 1435.351562 761.578125 1429.46875 759.660156 1420.699219 759.730469 L 1403.160156 749.019531 C 1489.460938 700.011719 1672.558594 637.839844 1824.949219 867.101562 C 1824.949219 867.101562 1792.28125 851.988281 1769.320312 818.660156 C 1769.320312 818.660156 1764.28125 832.261719 1780.140625 852.019531 C 1780.140625 852.019531 1748.390625 836.898438 1733.191406 794.710938 C 1733.191406 794.710938 1731.300781 828.210938 1752.398438 849.128906 C 1752.398438 849.128906 1717 827.71875 1710.828125 800.660156 C 1710.828125 800.660156 1708.75 827.96875 1714.820312 832.25 C 1714.820312 832.25 1688.210938 811.988281 1684.421875 781.550781 C 1684.421875 781.550781 1676.519531 799.210938 1683.890625 810.960938 C 1683.890625 810.960938 1659.519531 788.230469 1655.410156 769.699219 C 1655.410156 769.699219 1645.800781 796.238281 1673.460938 815.730469 C 1673.460938 815.730469 1632.480469 797.960938 1628.570312 758.359375 C 1628.570312 758.359375 1620.640625 777.5 1630.941406 790.820312 C 1630.941406 790.820312 1600.671875 775.039062 1595.828125 753.96875 C 1595.828125 753.96875 1596.011719 782.359375 1637.210938 809.871094 C 1637.210938 809.871094 1582.941406 792.328125 1582.03125 756.359375 C 1582.03125 756.359375 1570.550781 775.519531 1587.851562 788.21875 C 1587.851562 788.21875 1555.851562 772.738281 1553.671875 755.050781 C 1553.671875 755.050781 1551.789062 774.929688 1566.148438 786.058594 C 1566.148438 786.058594 1525.738281 768.191406 1519.21875 745.921875 C 1519.21875 745.921875 1518.109375 766.851562 1528.53125 775.699219 C 1528.53125 775.699219 1496.039062 765.929688 1490.230469 751.238281 C 1490.230469 751.238281 1494.011719 764.511719 1508.339844 777.128906 C 1508.339844 777.128906 1484.621094 773.539062 1475.191406 761.851562 C 1475.191406 761.851562 1476.628906 777 1492.839844 783.371094 C 1492.839844 783.371094 1473.660156 785.511719 1452.25 767.898438 C 1452.25 767.898438 1449.941406 772.628906 1449.488281 777.308594 "/>
<path fill-rule="nonzero" fill="rgb(6.266785%, 5.734253%, 5.047607%)" fill-opacity="1" d="M 1323.101562 731.871094 L 1333.519531 733.070312 C 1335.039062 732.441406 1336.511719 731.671875 1337.839844 730.691406 C 1340.441406 728.789062 1345.289062 730.539062 1351.011719 735.078125 L 1368.019531 737.03125 C 1336.460938 660.621094 1248.070312 525.96875 1030.5 598.441406 C 1030.5 598.441406 1059.699219 605.25 1091.859375 595.121094 C 1091.859375 595.121094 1088.199219 606.648438 1067.660156 611.488281 C 1067.660156 611.488281 1096.261719 617.828125 1127.859375 597.921875 C 1127.859375 597.921875 1111.941406 620.878906 1087.359375 623.808594 C 1087.359375 623.808594 1121.578125 627.890625 1139.5 613.28125 C 1139.5 613.28125 1126.871094 632.28125 1120.691406 631.980469 C 1120.691406 631.980469 1148.550781 632.308594 1166.640625 614.269531 C 1166.640625 614.269531 1162.769531 629.910156 1151.910156 633.851562 C 1151.910156 633.851562 1179.558594 631.421875 1191.761719 621.339844 C 1191.761719 621.339844 1184.46875 643.699219 1156.320312 642.328125 C 1156.320312 642.328125 1192.339844 651.660156 1215.199219 627.648438 C 1215.199219 627.648438 1210.601562 644.289062 1197.011719 647.761719 C 1197.011719 647.761719 1224.96875 652.910156 1238.949219 641.550781 C 1238.949219 641.550781 1224.28125 660.101562 1183.128906 657.058594 C 1183.128906 657.058594 1227.761719 673.351562 1246.789062 650.191406 C 1246.789062 650.191406 1244.511719 668.660156 1226.640625 668.128906 C 1226.640625 668.128906 1255.589844 674.359375 1266.078125 663.859375 C 1266.078125 663.859375 1257.140625 677.878906 1242 677.828125 C 1242 677.828125 1277.691406 686.800781 1293.390625 675.519531 C 1293.390625 675.519531 1283.390625 689.828125 1272.011719 690.308594 C 1272.011719 690.308594 1298.359375 700.550781 1309.699219 693.871094 C 1309.699219 693.871094 1300.421875 700.648438 1284.539062 701.589844 C 1284.539062 701.589844 1301.960938 711.390625 1314.140625 708.539062 C 1314.140625 708.539062 1305.429688 717.75 1291.519531 713.628906 C 1291.519531 713.628906 1303.019531 724.859375 1326.109375 724.269531 C 1326.109375 724.269531 1325.191406 728.558594 1323.101562 731.871094 "/>
<path fill-rule="nonzero" fill="rgb(6.266785%, 5.734253%, 5.047607%)" fill-opacity="1" d="M 1362.300781 688.21875 C 1362.300781 688.21875 1518.828125 1066.25 1096.730469 1515.789062 L 1007.828125 1471.46875 C 1007.828125 1471.46875 1468.429688 1089.121094 1334.71875 713.46875 L 1362.300781 688.21875 "/>
<path fill-rule="nonzero" fill="rgb(6.266785%, 5.734253%, 5.047607%)" fill-opacity="1" d="M 592.378906 845.871094 C 592.378906 845.871094 870.011719 834.738281 844.933594 1132.230469 C 844.933594 1132.230469 832.019531 1106.609375 834.203125 1074.410156 C 834.203125 1074.410156 824.308594 1080.410156 824.425781 1100.609375 C 824.425781 1100.609375 812.089844 1075.441406 823.503906 1041.558594 C 823.503906 1041.558594 805.722656 1061.539062 808.53125 1085.058594 C 808.53125 1085.058594 797.03125 1054.148438 806.589844 1034.191406 C 806.589844 1034.191406 791.757812 1050.210938 793.429688 1055.890625 C 793.429688 1055.890625 786.851562 1030.050781 799.566406 1009.160156 C 799.566406 1009.160156 785.886719 1016.28125 784.660156 1027.269531 C 784.660156 1027.269531 780.699219 1001 787.324219 987.390625 C 787.324219 987.390625 768.171875 999.199219 775.785156 1025.078125 C 775.785156 1025.078125 758.996094 993.671875 776.183594 967.011719 C 776.183594 967.011719 761.742188 975.03125 761.574219 988.449219 C 761.574219 988.449219 750.488281 963.601562 757.910156 948.039062 C 757.910156 948.039062 743.953125 965.859375 756.046875 1003.460938 C 756.046875 1003.460938 730.847656 965.609375 748.105469 942.691406 C 748.105469 942.691406 731.4375 948.96875 735.949219 965.480469 C 735.949219 965.480469 723.636719 939.949219 731.042969 927.828125 C 731.042969 927.828125 720.015625 939.300781 723.472656 953.371094 C 723.472656 953.371094 707.089844 922.191406 714.050781 905.050781 C 714.050781 905.050781 702.988281 917.570312 705.105469 928.261719 C 705.105469 928.261719 689.65625 906.058594 693.308594 894.011719 C 693.308594 894.011719 689.097656 904.171875 691.792969 919.148438 C 691.792969 919.148438 678.757812 905.148438 678.660156 893.179688 C 678.660156 893.179688 672.054688 903.351562 679.019531 915.359375 C 679.019531 915.359375 665.984375 907.199219 661.339844 885.589844 C 661.339844 885.589844 652.019531 890.050781 652.558594 895.371094 C 652.558594 895.371094 649.308594 884.328125 652.722656 876.121094 C 656.136719 867.921875 627.335938 849.300781 592.378906 845.871094 "/>
<path fill-rule="nonzero" fill="rgb(6.266785%, 5.734253%, 5.047607%)" fill-opacity="1" d="M 657.609375 873.070312 L 649.121094 867.710938 C 648.367188 866.328125 647.738281 864.859375 647.335938 863.339844 C 646.535156 860.359375 641.871094 858.75 634.882812 858.699219 L 621.035156 849.941406 C 690.449219 811.960938 837.183594 764.710938 955.777344 949.371094 C 955.777344 949.371094 929.925781 936.921875 912.046875 910.058594 C 912.046875 910.058594 907.855469 920.839844 920.25 936.789062 C 920.25 936.789062 895.132812 924.339844 883.546875 890.519531 C 883.546875 890.519531 881.613281 917.191406 898.167969 934.140625 C 898.167969 934.140625 870.222656 916.628906 865.644531 894.980469 C 865.644531 894.980469 863.644531 916.71875 868.429688 920.210938 C 868.429688 920.210938 847.472656 903.71875 844.832031 879.410156 C 844.832031 879.410156 838.3125 893.378906 844.039062 902.851562 C 844.039062 902.851562 824.898438 884.421875 821.859375 869.601562 C 821.859375 869.601562 813.863281 890.628906 835.667969 906.519531 C 835.667969 906.519531 803.21875 891.828125 800.605469 860.21875 C 800.605469 860.21875 794.039062 875.378906 802.085938 886.121094 C 802.085938 886.121094 778.152344 873.171875 774.5625 856.308594 C 774.5625 856.308594 774.351562 878.941406 806.839844 901.390625 C 806.839844 901.390625 763.800781 886.71875 763.53125 858.039062 C 763.53125 858.039062 754.136719 873.171875 767.769531 883.511719 C 767.769531 883.511719 742.453125 870.769531 740.941406 856.640625 C 740.941406 856.640625 739.1875 872.460938 750.5 881.511719 C 750.5 881.511719 718.511719 866.761719 713.59375 848.929688 C 713.59375 848.929688 712.441406 865.589844 720.636719 872.78125 C 720.636719 872.78125 694.859375 864.589844 690.417969 852.808594 C 690.417969 852.808594 693.265625 863.429688 704.527344 873.671875 C 704.527344 873.671875 685.664062 870.511719 678.292969 861.070312 C 678.292969 861.070312 679.253906 873.160156 692.09375 878.449219 C 692.09375 878.449219 676.78125 879.910156 659.933594 865.601562 C 659.933594 865.601562 658.035156 869.351562 657.609375 873.070312 "/>
<path fill-rule="nonzero" fill="rgb(6.266785%, 5.734253%, 5.047607%)" fill-opacity="1" d="M 664.875 848.269531 L 654.882812 849.269531 C 653.4375 848.648438 652.042969 847.890625 650.785156 846.941406 C 648.316406 845.078125 643.652344 846.691406 638.117188 850.960938 L 621.816406 852.601562 C 653.058594 779.898438 739.472656 652.238281 946.6875 724.539062 C 946.6875 724.539062 918.652344 730.671875 888.019531 720.539062 C 888.019531 720.539062 891.363281 731.621094 910.957031 736.53125 C 910.957031 736.53125 883.503906 742.210938 853.53125 722.71875 C 853.53125 722.71875 868.453125 744.921875 891.933594 748.058594 C 891.933594 748.058594 859.136719 751.5 842.183594 737.269531 C 842.183594 737.269531 854.011719 755.628906 859.929688 755.421875 C 859.929688 755.421875 833.265625 755.359375 816.199219 737.839844 C 816.199219 737.839844 819.683594 752.871094 830.023438 756.789062 C 830.023438 756.789062 803.59375 754.078125 792.0625 744.28125 C 792.0625 744.28125 798.734375 765.769531 825.691406 764.839844 C 825.691406 764.839844 791.09375 773.28125 769.550781 749.988281 C 769.550781 749.988281 773.722656 765.980469 786.683594 769.480469 C 786.683594 769.480469 759.847656 774.03125 746.628906 762.96875 C 746.628906 762.96875 760.414062 780.921875 799.835938 778.570312 C 799.835938 778.570312 756.902344 793.558594 739.011719 771.128906 C 739.011719 771.128906 740.941406 788.839844 758.046875 788.578125 C 758.046875 788.578125 730.261719 794.148438 720.363281 783.960938 C 720.363281 783.960938 728.730469 797.488281 743.222656 797.648438 C 743.222656 797.648438 708.9375 805.75 694.074219 794.75 C 694.074219 794.75 703.441406 808.570312 714.324219 809.191406 C 714.324219 809.191406 688.976562 818.621094 678.214844 812.078125 C 678.214844 812.078125 687.003906 818.691406 702.183594 819.808594 C 702.183594 819.808594 685.382812 828.949219 673.761719 826.058594 C 673.761719 826.058594 681.972656 834.988281 695.339844 831.238281 C 695.339844 831.238281 684.183594 841.828125 662.097656 840.949219 C 662.097656 840.949219 662.914062 845.070312 664.875 848.269531 "/>
<path fill-rule="nonzero" fill="rgb(6.266785%, 5.734253%, 5.047607%)" fill-opacity="1" d="M 653.148438 817.128906 L 647.882812 825.679688 C 646.511719 826.460938 645.058594 827.101562 643.542969 827.519531 C 640.566406 828.359375 639.011719 833.039062 639.046875 840.03125 L 630.457031 853.980469 C 591.644531 785.03125 542.644531 638.859375 725.882812 518.078125 C 725.882812 518.078125 713.738281 544.078125 687.089844 562.269531 C 687.089844 562.269531 697.925781 566.339844 713.722656 553.75 C 713.722656 553.75 701.574219 579.019531 667.894531 591.011719 C 667.894531 591.011719 694.589844 592.621094 711.335938 575.859375 C 711.335938 575.859375 694.160156 604.019531 672.566406 608.851562 C 672.566406 608.851562 694.332031 610.589844 697.761719 605.769531 C 697.761719 605.769531 681.523438 626.921875 657.25 629.851562 C 657.25 629.851562 671.300781 636.199219 680.691406 630.359375 C 680.691406 630.359375 662.503906 649.71875 647.710938 652.941406 C 647.710938 652.941406 668.839844 660.679688 684.464844 638.691406 C 684.464844 638.691406 670.167969 671.308594 638.589844 674.300781 C 638.589844 674.300781 653.824219 680.679688 664.472656 672.511719 C 664.472656 672.511719 651.804688 696.601562 634.984375 700.390625 C 634.984375 700.390625 657.625 700.328125 679.683594 667.570312 C 679.683594 667.570312 665.53125 710.789062 636.851562 711.398438 C 636.851562 711.398438 652.097656 720.609375 662.269531 706.859375 C 662.269531 706.859375 649.832031 732.320312 635.726562 734 C 635.726562 734 651.5625 735.570312 660.480469 724.148438 C 660.480469 724.148438 646.109375 756.308594 628.339844 761.441406 C 628.339844 761.441406 645.015625 762.390625 652.105469 754.109375 C 652.105469 754.109375 644.222656 779.988281 632.492188 784.570312 C 632.492188 784.570312 643.078125 781.601562 653.183594 770.210938 C 653.183594 770.210938 650.25 789.109375 640.898438 796.589844 C 640.898438 796.589844 652.980469 795.488281 658.109375 782.589844 C 658.109375 782.589844 659.757812 797.878906 645.652344 814.898438 C 645.652344 814.898438 649.421875 816.75 653.148438 817.128906 "/>
<path fill-rule="nonzero" fill="rgb(6.266785%, 5.734253%, 5.047607%)" fill-opacity="1" d="M 657.996094 806.261719 L 650.292969 809.519531 C 648.992188 809.378906 647.691406 809.121094 646.457031 808.671875 C 644.035156 807.800781 640.71875 810.230469 637.367188 814.988281 L 624.804688 820.320312 C 631.738281 754.769531 669.023438 631.890625 851.730469 638.328125 C 851.730469 638.328125 830.933594 650.121094 804.058594 649.609375 C 804.058594 649.609375 809.453125 657.601562 826.253906 656.679688 C 826.253906 656.679688 805.8125 667.96875 777.15625 659.851562 C 777.15625 659.851562 794.503906 673.839844 813.960938 670.539062 C 813.960938 670.539062 788.710938 681.371094 771.714844 674.230469 C 771.714844 674.230469 785.652344 685.910156 790.308594 684.289062 C 790.308594 684.289062 769.078125 690.808594 751.179688 681.089844 C 751.179688 681.089844 757.65625 692.179688 766.851562 692.75 C 766.851562 692.75 745.15625 697.109375 733.5625 692.160156 C 733.5625 692.160156 744.167969 707.609375 765.390625 700.21875 C 765.390625 700.21875 739.941406 715.46875 717.054688 702.261719 C 717.054688 702.261719 724.320312 713.949219 735.492188 713.539062 C 735.492188 713.539062 715.265625 723.769531 702.015625 718.230469 C 702.015625 718.230469 717.414062 729.121094 748.199219 717.53125 C 748.199219 717.53125 717.734375 740.03125 697.96875 726.609375 C 697.96875 726.609375 703.871094 740.21875 717.417969 735.789062 C 717.417969 735.789062 696.683594 747.078125 686.292969 741.410156 C 686.292969 741.410156 696.289062 750.109375 707.855469 746.671875 C 707.855469 746.671875 682.574219 761.558594 668.035156 756.46875 C 668.035156 756.46875 678.898438 765.171875 687.707031 762.96875 C 687.707031 762.96875 669.863281 776.730469 659.691406 774.179688 C 659.691406 774.179688 668.3125 777.269531 680.667969 774.421875 C 680.667969 774.421875 669.554688 785.828125 659.59375 786.398438 C 659.59375 786.398438 668.328125 791.480469 678.039062 785.199219 C 678.039062 785.199219 671.773438 796.378906 653.984375 801.121094 C 653.984375 801.121094 655.648438 804.199219 657.996094 806.261719 "/>
<path fill-rule="nonzero" fill="rgb(6.266785%, 5.734253%, 5.047607%)" fill-opacity="1" d="M 661.167969 825.628906 C 661.167969 825.628906 421.78125 966.691406 604.03125 1203.148438 C 604.03125 1203.148438 601.003906 1174.609375 581.726562 1148.730469 C 581.726562 1148.730469 593.292969 1148.421875 604.136719 1165.460938 C 604.136719 1165.460938 600.867188 1137.609375 572.917969 1115.320312 C 572.917969 1115.320312 598.6875 1122.480469 609.070312 1143.769531 C 609.070312 1143.769531 601.992188 1111.558594 583.144531 1099.960938 C 583.144531 1099.960938 604.292969 1105.398438 605.964844 1111.078125 C 605.964844 1111.078125 597.492188 1085.789062 575.488281 1075.121094 C 575.488281 1075.121094 590.84375 1073.691406 597.824219 1082.269531 C 597.824219 1082.269531 586.921875 1058.039062 573.980469 1050.191406 C 573.980469 1050.191406 596.480469 1049.738281 604.097656 1075.621094 C 604.097656 1075.621094 601.195312 1040.121094 572.304688 1027.019531 C 572.304688 1027.019531 588.789062 1025.941406 596.199219 1037.140625 C 596.199219 1037.140625 592.054688 1010.238281 577.386719 1001.179688 C 577.386719 1001.179688 598.773438 1008.601562 608.976562 1046.75 C 608.976562 1046.75 609.652344 1001.28125 582.730469 991.371094 C 582.730469 991.371094 600.144531 987.621094 605.289062 1003.941406 C 605.289062 1003.941406 601.8125 975.808594 589.019531 969.628906 C 589.019531 969.628906 604.503906 973.308594 609.222656 987.011719 C 609.222656 987.011719 606.09375 951.921875 590.960938 941.28125 C 590.960938 941.28125 607.039062 945.808594 611.054688 955.949219 C 611.054688 955.949219 612.011719 928.910156 602.410156 920.769531 C 602.410156 920.769531 611.453125 927.019531 617.304688 941.070312 C 617.304688 941.070312 620.679688 922.25 614.273438 912.128906 C 614.273438 912.128906 625.339844 917.109375 625.992188 930.96875 C 625.992188 930.96875 632.523438 917.050781 624.722656 896.371094 C 624.722656 896.371094 634.96875 895.070312 637.402344 899.839844 C 637.402344 899.839844 634.152344 888.789062 626.835938 883.738281 C 619.519531 878.691406 633.640625 847.449219 661.167969 825.628906 "/>
<path fill-rule="nonzero" fill="rgb(6.266785%, 5.734253%, 5.047607%)" fill-opacity="1" d="M 621.074219 883.828125 L 625.300781 874.71875 C 625.1875 873.148438 624.925781 871.578125 624.441406 870.078125 C 623.492188 867.140625 626.539062 863.261719 632.390625 859.429688 L 639.28125 844.570312 C 560.359375 850.25 411.429688 890.03125 411.800781 1109.5 C 411.800781 1109.5 426.777344 1085.03125 427.253906 1052.761719 C 427.253906 1052.761719 436.621094 1059.558594 434.84375 1079.679688 C 434.84375 1079.679688 449.207031 1055.601562 440.621094 1020.898438 C 440.621094 1020.898438 456.699219 1042.269531 451.964844 1065.480469 C 451.964844 1065.480469 465.96875 1035.628906 458.085938 1014.949219 C 458.085938 1014.949219 471.546875 1032.140625 469.414062 1037.660156 C 469.414062 1037.660156 478.09375 1012.449219 467.144531 990.589844 C 467.144531 990.589844 480.195312 998.800781 480.507812 1009.859375 C 480.507812 1009.859375 486.617188 984 481.136719 969.890625 C 481.136719 969.890625 499.253906 983.238281 489.53125 1008.410156 C 489.53125 1008.410156 508.851562 978.488281 493.917969 950.5 C 493.917969 950.5 507.652344 959.679688 506.710938 973.070312 C 506.710938 973.070312 519.808594 949.210938 513.691406 933.101562 C 513.691406 933.101562 526.132812 952.011719 510.984375 988.480469 C 510.984375 988.480469 539.21875 952.828125 523.902344 928.578125 C 523.902344 928.578125 539.996094 936.210938 534.140625 952.28125 C 534.140625 952.28125 548.511719 927.859375 542.132812 915.171875 C 542.132812 915.171875 552.175781 927.511719 547.570312 941.25 C 547.570312 941.25 566.464844 911.519531 560.941406 893.871094 C 560.941406 893.871094 570.933594 907.25 567.941406 917.730469 C 567.941406 917.730469 585.167969 896.878906 582.519531 884.570312 C 582.519531 884.570312 585.882812 895.039062 581.960938 909.75 C 581.960938 909.75 596.105469 896.871094 597.1875 884.949219 C 597.1875 884.949219 602.933594 895.628906 595.003906 907.03125 C 595.003906 907.03125 608.664062 899.960938 615.074219 878.808594 C 615.074219 878.808594 618.699219 880.929688 621.074219 883.828125 "/>
<path fill-rule="nonzero" fill="rgb(6.266785%, 5.734253%, 5.047607%)" fill-opacity="1" d="M 601.527344 866.910156 L 610.46875 862.339844 C 611.347656 861.039062 612.109375 859.640625 612.652344 858.160156 C 613.71875 855.261719 618.511719 854.089844 625.476562 854.679688 L 640.0625 847.21875 C 574.417969 803.039062 432.625 742.558594 297.628906 915.601562 C 297.628906 915.601562 324.511719 905.570312 344.773438 880.449219 C 344.773438 880.449219 347.960938 891.578125 334.160156 906.320312 C 334.160156 906.320312 360.3125 896.21875 374.945312 863.601562 C 374.945312 863.601562 374.425781 890.339844 356.390625 905.699219 C 356.390625 905.699219 385.820312 890.820312 392.363281 869.679688 C 392.363281 869.679688 392.363281 891.519531 387.277344 894.550781 C 387.277344 894.550781 409.65625 880.050781 414.511719 856.089844 C 414.511719 856.089844 419.722656 870.601562 413.15625 879.5 C 413.15625 879.5 433.902344 862.910156 438.285156 848.421875 C 438.285156 848.421875 444.324219 870.101562 421.15625 883.921875 C 421.15625 883.921875 454.8125 872.269531 460.304688 841.019531 C 460.304688 841.019531 465.457031 856.71875 456.460938 866.691406 C 456.460938 866.691406 481.480469 855.96875 486.601562 839.511719 C 486.601562 839.511719 484.738281 862.070312 450.332031 881.449219 C 450.332031 881.449219 494.535156 870.789062 497.425781 842.25 C 497.425781 842.25 505.398438 858.179688 490.875 867.21875 C 490.875 867.21875 517.25 856.851562 520.050781 842.921875 C 520.050781 842.921875 520.347656 858.839844 508.253906 866.820312 C 508.253906 866.820312 541.457031 855.050781 547.988281 837.75 C 547.988281 837.75 547.609375 854.449219 538.792969 860.859375 C 538.792969 860.859375 565.210938 855.058594 570.710938 843.730469 C 570.710938 843.730469 566.90625 854.039062 554.753906 863.210938 C 554.753906 863.210938 573.824219 861.789062 582.027344 853.070312 C 582.027344 853.070312 579.96875 865.019531 566.699219 869.109375 C 566.699219 869.109375 581.8125 871.96875 599.898438 859.261719 C 599.898438 859.261719 601.445312 863.160156 601.527344 866.910156 "/>
<path fill-rule="nonzero" fill="rgb(6.266785%, 5.734253%, 5.047607%)" fill-opacity="1" d="M 594.515625 834.390625 L 603.574219 838.730469 C 605.144531 838.628906 606.71875 838.390625 608.222656 837.921875 C 611.175781 837.011719 615.015625 840.101562 618.773438 846 L 633.554688 853.070312 C 628.816406 774.078125 590.8125 624.691406 371.359375 622.441406 C 371.359375 622.441406 395.652344 637.710938 427.910156 638.570312 C 427.910156 638.570312 421.003906 647.851562 400.90625 645.828125 C 400.90625 645.828125 424.808594 660.488281 459.613281 652.320312 C 459.613281 652.320312 438.046875 668.140625 414.894531 663.121094 C 414.894531 663.121094 444.582031 677.480469 465.351562 669.851562 C 465.351562 669.851562 448.003906 683.101562 442.503906 680.898438 C 442.503906 680.898438 467.609375 689.890625 489.605469 679.199219 C 489.605469 679.199219 481.234375 692.148438 470.175781 692.328125 C 470.175781 692.328125 495.953125 698.75 510.128906 693.429688 C 510.128906 693.429688 496.566406 711.390625 471.519531 701.371094 C 471.519531 701.371094 501.207031 721.050781 529.371094 706.449219 C 529.371094 706.449219 520.023438 720.070312 506.644531 718.96875 C 506.644531 718.96875 530.34375 732.351562 546.535156 726.429688 C 546.535156 726.429688 527.472656 738.640625 491.1875 723.058594 C 491.1875 723.058594 526.492188 751.71875 550.929688 736.691406 C 550.929688 736.691406 543.109375 752.699219 527.105469 746.648438 C 527.105469 746.648438 551.355469 761.308594 564.125 755.078125 C 564.125 755.078125 551.660156 764.980469 537.976562 760.210938 C 537.976562 760.210938 567.480469 779.460938 585.199219 774.140625 C 585.199219 774.140625 571.695312 783.980469 561.25 780.859375 C 561.25 780.859375 581.894531 798.328125 594.234375 795.828125 C 594.234375 795.828125 583.730469 799.070312 569.066406 794.96875 C 569.066406 794.96875 581.773438 809.269531 593.683594 810.488281 C 593.683594 810.488281 582.933594 816.109375 571.632812 808.050781 C 571.632812 808.050781 578.53125 821.789062 599.609375 828.449219 C 599.609375 828.449219 597.445312 832.050781 594.515625 834.390625 "/>
<path fill-rule="nonzero" fill="rgb(6.266785%, 5.734253%, 5.047607%)" fill-opacity="1" d="M 584.550781 827.878906 L 592.792969 826.449219 C 593.8125 825.621094 594.761719 824.699219 595.558594 823.660156 C 597.121094 821.609375 601.226562 821.859375 606.621094 824.050781 L 620.066406 821.710938 C 578.726562 770.371094 480.8125 687.289062 330.734375 791.699219 C 330.734375 791.699219 354.601562 790.339844 376.914062 775.351562 C 376.914062 775.351562 376.710938 784.988281 362.089844 793.320312 C 362.089844 793.320312 385.390625 791.730469 405.074219 769.378906 C 405.074219 769.378906 398.070312 790.53125 379.933594 798.308594 C 379.933594 798.308594 407.019531 793.71875 417.433594 778.511719 C 417.433594 778.511719 412.054688 795.890625 407.257812 797.050781 C 407.257812 797.050781 428.640625 791.03125 438.410156 773.160156 C 438.410156 773.160156 438.980469 785.988281 431.5625 791.449219 C 431.5625 791.449219 452.160156 783.359375 459.21875 772.910156 C 459.21875 772.910156 458.679688 791.648438 436.835938 796.941406 C 436.835938 796.941406 466.488281 795.96875 478.5625 772.460938 C 478.5625 772.460938 478.792969 786.21875 469.179688 791.929688 C 469.179688 791.929688 491.726562 789.578125 499.859375 777.738281 C 499.859375 777.738281 492.816406 795.230469 460.660156 802.171875 C 460.660156 802.171875 498.460938 804.578125 507.800781 782.578125 C 507.800781 782.578125 510.214844 797.230469 496.429688 800.839844 C 496.429688 800.839844 519.972656 799.089844 525.632812 788.699219 C 525.632812 788.699219 521.945312 801.429688 510.355469 804.800781 C 510.355469 804.800781 539.675781 803.628906 549.140625 791.46875 C 549.140625 791.46875 544.722656 804.660156 536.125 807.589844 C 536.125 807.589844 558.574219 809.488281 565.746094 801.828125 C 565.746094 801.828125 560.175781 809.101562 548.242188 813.398438 C 548.242188 813.398438 563.769531 816.96875 572.449219 812.050781 C 572.449219 812.050781 567.859375 821.058594 556.296875 821.039062 C 556.296875 821.039062 567.617188 827.039062 585.140625 821.390625 C 585.140625 821.390625 585.410156 824.871094 584.550781 827.878906 "/>
<path fill-rule="nonzero" fill="rgb(6.266785%, 5.734253%, 5.047607%)" fill-opacity="1" d="M 651.277344 900.839844 C 654.804688 913.03125 658.492188 925.46875 662.460938 938.070312 C 666.394531 950.679688 670.726562 963.378906 675.496094 976.070312 C 676.722656 979.230469 677.867188 982.441406 679.167969 985.578125 C 680.457031 988.71875 681.753906 991.878906 683.054688 995.039062 C 685.808594 1001.28125 688.523438 1007.589844 691.605469 1013.710938 C 692.355469 1015.261719 693.105469 1016.800781 693.855469 1018.351562 C 694.632812 1019.878906 695.460938 1021.378906 696.261719 1022.890625 C 697.066406 1024.410156 697.875 1025.921875 698.683594 1027.441406 L 699.894531 1029.71875 L 701.191406 1031.941406 C 702.929688 1034.890625 704.671875 1037.851562 706.414062 1040.808594 C 708.273438 1043.691406 710.140625 1046.558594 712.007812 1049.449219 C 712.90625 1050.910156 713.949219 1052.269531 714.9375 1053.671875 L 717.933594 1057.839844 C 719.898438 1060.71875 721.992188 1063.191406 724.035156 1065.769531 L 727.097656 1069.628906 C 727.335938 1069.941406 727.632812 1070.28125 727.945312 1070.628906 L 728.855469 1071.660156 L 730.679688 1073.71875 L 734.332031 1077.851562 L 736.160156 1079.921875 C 735.613281 1079.261719 736.136719 1079.871094 736.070312 1079.78125 L 736.292969 1080.011719 L 736.738281 1080.46875 L 737.628906 1081.390625 C 747.050781 1091.230469 757.652344 1100.390625 768.78125 1109.410156 C 779.914062 1118.429688 791.640625 1127.300781 803.441406 1136.679688 L 807.933594 1140.28125 L 812.210938 1143.761719 L 812.746094 1144.191406 C 812.875 1144.300781 812.839844 1144.261719 813.097656 1144.488281 L 813.367188 1144.71875 L 814.453125 1145.660156 L 816.617188 1147.53125 L 820.945312 1151.269531 C 823.832031 1153.769531 826.714844 1156.261719 829.589844 1158.75 C 831.019531 1160 832.480469 1161.230469 833.886719 1162.5 L 838.011719 1166.421875 C 860.40625 1186.910156 880.5 1209.210938 898.546875 1231.921875 C 900.804688 1234.761719 903.054688 1237.601562 905.289062 1240.410156 L 906.964844 1242.53125 L 908.539062 1244.710938 C 909.589844 1246.160156 910.636719 1247.609375 911.683594 1249.050781 C 913.773438 1251.949219 915.855469 1254.820312 917.925781 1257.691406 C 918.960938 1259.121094 919.992188 1260.550781 921.023438 1261.980469 C 922.054688 1263.410156 923.09375 1264.820312 924.027344 1266.300781 C 927.871094 1272.160156 931.671875 1277.949219 935.425781 1283.679688 C 936.355469 1285.121094 937.324219 1286.53125 938.210938 1287.980469 C 939.082031 1289.441406 939.949219 1290.898438 940.8125 1292.351562 C 942.539062 1295.261719 944.257812 1298.160156 945.964844 1301.03125 C 947.667969 1303.910156 949.359375 1306.761719 951.042969 1309.601562 C 951.910156 1311.011719 952.652344 1312.46875 953.429688 1313.910156 C 954.203125 1315.359375 954.972656 1316.789062 955.738281 1318.230469 C 958.800781 1323.96875 961.816406 1329.621094 964.78125 1335.191406 C 967.503906 1340.878906 970.179688 1346.46875 972.804688 1351.960938 C 974.113281 1354.71875 975.410156 1357.441406 976.695312 1360.140625 C 977.863281 1362.898438 979.015625 1365.621094 980.160156 1368.320312 C 982.445312 1373.730469 984.679688 1379.019531 986.863281 1384.199219 C 987.4375 1385.480469 987.890625 1386.800781 988.378906 1388.101562 C 988.863281 1389.398438 989.34375 1390.699219 989.820312 1391.980469 C 990.773438 1394.558594 991.71875 1397.101562 992.648438 1399.609375 C 993.578125 1402.128906 994.492188 1404.609375 995.398438 1407.058594 C 995.851562 1408.289062 996.300781 1409.5 996.746094 1410.710938 C 997.199219 1411.921875 997.546875 1413.148438 997.945312 1414.359375 C 999.492188 1419.199219 1000.988281 1423.910156 1002.449219 1428.460938 C 1005.519531 1437.550781 1007.660156 1446.261719 1009.851562 1454.28125 C 1010.378906 1456.289062 1010.910156 1458.261719 1011.429688 1460.179688 C 1011.679688 1461.140625 1011.941406 1462.101562 1012.191406 1463.039062 C 1012.449219 1463.96875 1012.691406 1464.910156 1012.890625 1465.890625 C 1013.730469 1469.730469 1014.53125 1473.398438 1015.289062 1476.878906 C 1016.039062 1480.371094 1016.75 1483.679688 1017.421875 1486.78125 C 1017.519531 1487.269531 1017.628906 1487.75 1017.730469 1488.238281 L 943.203125 1510.171875 C 943.0625 1508.601562 942.917969 1506.941406 942.765625 1505.179688 C 942.585938 1502.550781 942.21875 1500.300781 941.882812 1497.71875 C 941.542969 1495.160156 941.179688 1492.441406 940.800781 1489.570312 C 940.425781 1486.691406 940.03125 1483.660156 939.617188 1480.46875 C 939.53125 1479.691406 939.390625 1478.859375 939.230469 1478.019531 C 939.078125 1477.179688 938.921875 1476.328125 938.765625 1475.46875 C 938.457031 1473.761719 938.136719 1472 937.8125 1470.210938 C 936.488281 1463.058594 935.285156 1455.25 933.234375 1447.058594 C 932.296875 1442.941406 931.324219 1438.699219 930.328125 1434.320312 C 930.0625 1433.230469 929.855469 1432.109375 929.542969 1431.019531 C 929.238281 1429.921875 928.929688 1428.820312 928.621094 1427.710938 C 928.003906 1425.480469 927.375 1423.230469 926.738281 1420.941406 C 926.105469 1418.648438 925.464844 1416.339844 924.8125 1413.988281 C 924.488281 1412.820312 924.160156 1411.628906 923.832031 1410.449219 C 923.496094 1409.261719 923.199219 1408.050781 922.785156 1406.878906 C 921.230469 1402.128906 919.640625 1397.269531 918.015625 1392.320312 C 917.203125 1389.828125 916.386719 1387.320312 915.558594 1384.78125 C 914.613281 1382.289062 913.660156 1379.769531 912.695312 1377.230469 C 910.769531 1372.128906 908.808594 1366.941406 906.8125 1361.660156 C 904.574219 1356.46875 902.300781 1351.199219 899.992188 1345.839844 C 899.414062 1344.5 898.835938 1343.148438 898.253906 1341.800781 C 897.664062 1340.449219 897.113281 1339.070312 896.441406 1337.75 C 895.144531 1335.089844 893.839844 1332.398438 892.523438 1329.691406 C 891.210938 1326.980469 889.886719 1324.261719 888.554688 1321.511719 C 887.890625 1320.140625 887.222656 1318.761719 886.550781 1317.371094 C 885.863281 1316 885.097656 1314.660156 884.367188 1313.300781 C 881.417969 1307.859375 878.433594 1302.351562 875.414062 1296.78125 C 874.683594 1295.371094 873.851562 1294.019531 873.027344 1292.660156 C 872.203125 1291.289062 871.378906 1289.921875 870.550781 1288.550781 C 868.898438 1285.808594 867.234375 1283.050781 865.566406 1280.269531 C 864.730469 1278.890625 863.890625 1277.488281 863.054688 1276.101562 L 861.792969 1274 L 860.4375 1271.960938 C 858.625 1269.238281 856.800781 1266.511719 854.972656 1263.761719 C 840.335938 1241.800781 823.742188 1219.921875 804.8125 1199.460938 L 801.335938 1195.550781 C 800.144531 1194.269531 798.902344 1193.050781 797.6875 1191.789062 C 795.242188 1189.289062 792.789062 1186.78125 790.335938 1184.269531 L 786.648438 1180.5 L 784.804688 1178.601562 L 783.882812 1177.660156 L 783.648438 1177.421875 C 783.742188 1177.488281 783.53125 1177.300781 783.488281 1177.261719 L 782.992188 1176.78125 L 779.019531 1172.960938 L 775.1875 1169.320312 C 764.726562 1159.46875 753.648438 1149.539062 742.648438 1139 C 731.660156 1128.460938 720.707031 1117.320312 710.746094 1105.011719 L 708.570312 1102.339844 L 706.921875 1100.128906 L 703.625 1095.710938 L 701.980469 1093.5 L 701.15625 1092.390625 C 700.886719 1092.03125 700.609375 1091.660156 700.320312 1091.21875 L 696.921875 1086.191406 C 694.675781 1082.839844 692.347656 1079.488281 690.457031 1076.160156 C 689.460938 1074.5 688.46875 1072.839844 687.476562 1071.179688 C 686.496094 1069.511719 685.460938 1067.878906 684.585938 1066.160156 C 682.777344 1062.78125 680.972656 1059.398438 679.167969 1056.03125 C 677.519531 1052.601562 675.875 1049.179688 674.234375 1045.769531 L 673.015625 1043.210938 L 671.898438 1040.621094 C 671.160156 1038.890625 670.417969 1037.171875 669.679688 1035.449219 C 668.949219 1033.730469 668.1875 1032.019531 667.488281 1030.300781 C 666.816406 1028.570312 666.148438 1026.839844 665.480469 1025.109375 C 662.71875 1018.230469 660.390625 1011.300781 658.027344 1004.441406 C 656.9375 1000.988281 655.851562 997.558594 654.773438 994.140625 C 653.683594 990.71875 652.769531 987.289062 651.769531 983.890625 C 647.910156 970.261719 644.554688 956.828125 641.632812 943.691406 C 638.667969 930.539062 636 917.691406 633.492188 905.21875 C 628.820312 881.980469 624.496094 860.078125 619.894531 839.839844 L 632.09375 836.25 C 638.472656 856.339844 644.6875 878.089844 651.277344 900.839844 "/>
<path fill-rule="nonzero" fill="rgb(6.266785%, 5.734253%, 5.047607%)" fill-opacity="1" d="M 175.054688 1590.839844 C 239.773438 1586.28125 302.75 1582.378906 363.914062 1579.058594 C 364.503906 1577.160156 365.15625 1575.28125 365.871094 1573.460938 C 386.351562 1521.070312 442.726562 1492.539062 496.574219 1476.300781 C 550.421875 1460.050781 608.328125 1450.378906 653.222656 1416.5 C 689.757812 1388.929688 715.414062 1346.75 756.945312 1327.5 C 807.230469 1304.191406 866.882812 1320.910156 916.65625 1345.300781 C 966.429688 1369.679688 1013.96875 1401.929688 1068.710938 1410.679688 C 1158.511719 1425.03125 1248.328125 1373.261719 1338.671875 1383.769531 C 1386.210938 1389.308594 1432.78125 1414 1457.898438 1454.738281 C 1480.339844 1491.140625 1482.511719 1540.5 1460.550781 1576.570312 C 1579.199219 1583.679688 1642.820312 1590.839844 1642.820312 1590.839844 L 175.054688 1590.839844 "/>
<path fill-rule="nonzero" fill="rgb(100%, 100%, 100%)" fill-opacity="1" d="M 1443.410156 1580.960938 C 1443.410156 1580.960938 1444.078125 1578.699219 1445.058594 1574.390625 C 1446.019531 1570.070312 1447.371094 1563.710938 1448.460938 1555.511719 C 1449.558594 1547.308594 1450.550781 1537.269531 1450.53125 1525.691406 C 1450.480469 1514.121094 1449.621094 1500.941406 1446.191406 1486.910156 C 1444.519531 1479.898438 1442.148438 1472.710938 1438.949219 1465.539062 C 1437.308594 1461.96875 1435.511719 1458.390625 1433.351562 1454.929688 C 1432.339844 1453.160156 1431.128906 1451.480469 1430 1449.75 C 1428.75 1448.089844 1427.578125 1446.351562 1426.210938 1444.75 C 1420.949219 1438.148438 1414.5 1432.191406 1407.210938 1427.101562 C 1399.871094 1422.101562 1391.640625 1418.050781 1382.949219 1415.128906 C 1374.25 1412.199219 1365.121094 1410.261719 1355.828125 1409.148438 C 1346.539062 1408.03125 1337.089844 1407.75 1327.628906 1408.140625 L 1325.789062 1408.199219 L 1324.050781 1408.300781 L 1320.570312 1408.511719 C 1318.25 1408.648438 1315.921875 1408.789062 1313.601562 1408.929688 C 1311.28125 1409.039062 1308.910156 1409.269531 1306.550781 1409.46875 C 1304.179688 1409.679688 1301.820312 1409.878906 1299.449219 1410.089844 C 1297.070312 1410.269531 1294.730469 1410.558594 1292.371094 1410.820312 L 1285.300781 1411.628906 C 1280.578125 1412.191406 1275.890625 1412.921875 1271.179688 1413.558594 C 1252.390625 1416.511719 1233.808594 1420.648438 1215.769531 1425.378906 C 1211.25 1426.539062 1206.789062 1427.808594 1202.339844 1429.03125 C 1197.921875 1430.328125 1193.519531 1431.621094 1189.148438 1432.898438 C 1180.449219 1435.511719 1171.859375 1438.078125 1163.410156 1440.609375 C 1154.980469 1443.109375 1146.660156 1445.359375 1138.519531 1447.511719 C 1136.480469 1448.011719 1134.449219 1448.511719 1132.429688 1449.011719 C 1130.410156 1449.511719 1128.398438 1449.988281 1126.398438 1450.398438 C 1124.390625 1450.828125 1122.398438 1451.261719 1120.421875 1451.691406 C 1118.429688 1452.058594 1116.449219 1452.429688 1114.488281 1452.789062 C 1098.78125 1455.648438 1083.699219 1456.878906 1069.75 1456.828125 C 1062.769531 1456.839844 1056.078125 1456.441406 1049.730469 1455.960938 C 1046.550781 1455.648438 1043.449219 1455.398438 1040.441406 1455.078125 C 1037.449219 1454.671875 1034.53125 1454.28125 1031.710938 1453.898438 C 1028.871094 1453.570312 1026.171875 1452.988281 1023.539062 1452.550781 C 1022.230469 1452.320312 1020.941406 1452.101562 1019.671875 1451.871094 C 1018.410156 1451.660156 1017.160156 1451.460938 1015.949219 1451.179688 C 1013.53125 1450.671875 1011.210938 1450.191406 1008.988281 1449.71875 C 1006.769531 1449.25 1004.648438 1448.828125 1002.660156 1448.308594 C 998.667969 1447.320312 995.101562 1446.449219 992 1445.679688 C 988.917969 1444.828125 986.296875 1444.101562 984.171875 1443.519531 C 979.914062 1442.339844 977.640625 1441.71875 977.640625 1441.71875 C 977.640625 1441.71875 979.851562 1442.53125 983.996094 1444.058594 C 986.074219 1444.808594 988.640625 1445.738281 991.652344 1446.828125 C 994.707031 1447.820312 998.214844 1448.949219 1002.140625 1450.21875 C 1004.101562 1450.878906 1006.210938 1451.429688 1008.410156 1452.050781 C 1010.609375 1452.671875 1012.910156 1453.320312 1015.308594 1453.988281 C 1017.710938 1454.691406 1020.25 1455.210938 1022.871094 1455.839844 C 1025.5 1456.421875 1028.199219 1457.160156 1031.050781 1457.648438 C 1042.351562 1460.03125 1055.328125 1461.871094 1069.609375 1462.539062 C 1076.75 1462.898438 1084.210938 1462.851562 1091.921875 1462.539062 C 1093.851562 1462.480469 1095.789062 1462.289062 1097.75 1462.148438 C 1099.699219 1461.980469 1101.679688 1461.878906 1103.660156 1461.640625 C 1107.609375 1461.160156 1111.648438 1460.789062 1115.691406 1460.121094 C 1117.710938 1459.808594 1119.75 1459.488281 1121.800781 1459.179688 C 1123.851562 1458.800781 1125.898438 1458.429688 1127.960938 1458.050781 C 1130.039062 1457.691406 1132.101562 1457.261719 1134.179688 1456.808594 C 1136.25 1456.371094 1138.339844 1455.929688 1140.441406 1455.480469 C 1148.800781 1453.601562 1157.261719 1451.359375 1165.800781 1449.03125 C 1174.308594 1446.660156 1182.949219 1444.238281 1191.710938 1441.800781 C 1200.441406 1439.378906 1209.269531 1436.980469 1218.179688 1434.671875 C 1236.019531 1430.109375 1254.269531 1426.179688 1272.699219 1423.390625 C 1277.320312 1422.730469 1281.921875 1421.980469 1286.539062 1421.398438 L 1293.46875 1420.570312 C 1295.78125 1420.300781 1298.089844 1419.988281 1300.390625 1419.808594 C 1302.691406 1419.589844 1304.988281 1419.378906 1307.28125 1419.160156 C 1309.578125 1418.949219 1311.859375 1418.710938 1314.199219 1418.589844 C 1316.53125 1418.429688 1318.859375 1418.28125 1321.179688 1418.128906 L 1324.648438 1417.898438 L 1326.390625 1417.78125 L 1328.019531 1417.730469 C 1337.078125 1417.339844 1346.058594 1417.460938 1354.820312 1418.328125 C 1363.589844 1419.210938 1372.128906 1420.871094 1380.210938 1423.429688 C 1388.308594 1425.960938 1395.820312 1429.589844 1402.679688 1433.890625 C 1409.460938 1438.320312 1415.511719 1443.558594 1420.519531 1449.46875 C 1430.621094 1461.28125 1436.898438 1475.109375 1440.699219 1488.371094 C 1442.621094 1495.011719 1443.929688 1501.550781 1444.890625 1507.820312 C 1445.851562 1514.101562 1446.429688 1520.121094 1446.75 1525.789062 C 1447.328125 1537.148438 1447.058594 1547.121094 1446.5 1555.308594 C 1445.921875 1563.5 1445.148438 1569.921875 1444.511719 1574.28125 C 1443.871094 1578.648438 1443.410156 1580.960938 1443.410156 1580.960938 "/>
</svg>
